{"glyphs":{":":{"x_min":0,"x_max":203,"ha":203,"o":"m 145 239 q 145 222 132 208 q 119 195 102 195 q 83 195 70 208 q 57 222 57 239 q 57 257 70 270 q 83 283 101 283 q 119 283 132 270 q 145 257 145 239 z m 145 107 q 145 89 132 76 q 119 63 102 63 q 83 63 70 76 q 57 89 57 107 q 57 125 70 138 q 83 151 101 151 q 119 151 132 138 q 145 125 145 107 z"},"$":{"x_min":0,"x_max":458,"ha":458,"o":"m 430 247 q 430 183 378 129 q 334 83 267 56 l 267 -26 l 232 -26 l 232 50 l 201 49 q 140 47 57 83 l 57 254 l 89 254 q 110 91 232 83 l 232 346 q 149 400 127 420 q 70 472 70 530 q 70 588 123 638 q 170 682 232 697 l 232 777 l 267 777 l 267 701 l 286 701 q 329 701 398 677 l 398 525 l 365 525 q 350 646 267 667 l 267 432 q 291 414 320 394 q 376 356 396 334 q 430 296 430 247 z m 232 456 l 232 668 q 194 665 169 642 q 144 617 144 579 q 144 513 232 456 z m 354 194 q 354 267 267 320 l 267 86 q 354 108 354 194 z"},"?":{"x_min":0,"x_max":448,"ha":448,"o":"m 433 592 q 433 517 340 434 q 246 350 228 284 q 219 254 218 213 l 170 213 q 171 290 190 339 q 206 382 255 448 q 325 542 325 590 q 325 629 301 651 q 276 673 237 673 q 167 673 122 609 q 83 554 79 480 l 46 480 l 46 627 q 182 702 290 702 q 350 702 388 678 q 433 649 433 592 z m 252 108 q 252 83 235 66 q 218 49 193 49 q 169 49 152 66 q 135 83 135 108 q 135 132 152 149 q 168 167 192 167 q 217 167 235 150 q 252 133 252 108 z"},"<":{"x_min":0,"x_max":667,"ha":667,"o":"m 597 132 l 69 354 l 69 402 l 597 624 l 597 566 l 140 378 l 597 189 z"},"'":{"x_min":0,"x_max":156,"ha":156,"o":"m 130 655 q 130 634 125 600 l 98 443 l 79 443 l 55 602 q 49 641 49 655 q 49 702 91 702 q 130 702 130 655 z"},"=":{"x_min":0,"x_max":462,"ha":462,"o":"m 408 263 l 51 263 l 51 305 l 408 305 z m 408 177 l 51 177 l 51 219 l 408 219 z"},"a":{"x_min":0,"x_max":469,"ha":469,"o":"m 463 122 q 389 49 342 49 q 300 49 300 96 l 300 168 q 184 49 117 49 q 78 49 53 79 q 28 108 28 147 q 28 253 300 375 l 300 434 q 300 462 283 479 q 267 496 239 496 q 184 496 146 440 q 115 393 108 333 l 76 333 l 76 450 q 188 524 287 524 q 334 524 354 503 q 374 482 374 434 l 374 129 q 374 107 394 107 q 414 107 463 152 z m 305 336 q 235 321 178 286 q 103 239 103 180 q 103 149 121 131 q 140 113 170 113 q 241 113 277 194 q 304 255 305 336 z"},"L":{"x_min":0,"x_max":469,"ha":469,"o":"m 471 242 l 429 40 l 406 40 q 406 63 385 63 l 32 63 l 32 86 q 75 87 91 104 q 106 120 106 164 l 106 586 q 106 630 91 647 q 75 663 32 664 l 32 688 l 271 688 l 271 664 q 227 663 212 647 q 197 631 197 586 l 197 86 l 260 86 q 408 86 436 242 z"},"3":{"x_min":0,"x_max":552,"ha":552,"o":"m 498 292 q 498 194 409 120 q 324 49 225 49 q 161 49 80 80 l 80 243 l 113 243 q 121 175 162 131 q 206 83 271 83 q 334 83 373 128 q 408 171 408 235 q 408 311 367 351 q 326 392 250 392 l 169 392 l 169 415 q 240 422 300 475 q 365 532 365 600 q 365 634 343 655 q 321 676 287 676 q 221 676 180 608 q 146 552 144 481 l 110 481 l 110 629 q 226 702 321 702 q 375 702 412 678 q 455 650 455 599 q 455 497 250 415 q 284 417 300 417 q 498 417 498 292 z"},";":{"x_min":0,"x_max":240,"ha":240,"o":"m 180 463 q 180 439 163 422 q 146 404 121 404 q 97 404 79 422 q 62 439 62 463 q 62 487 79 505 q 96 522 120 522 q 145 522 163 505 q 180 488 180 463 z m 224 80 q 224 -50 61 -155 l 61 -127 q 169 -49 169 39 q 169 61 154 86 q 138 63 109 63 q 88 63 74 76 q 61 90 61 111 q 61 139 85 156 q 106 171 135 171 q 176 171 200 146 q 224 121 224 80 z"},"J":{"x_min":0,"x_max":292,"ha":292,"o":"m 271 664 q 228 663 213 647 q 197 630 197 586 l 197 177 q 197 13 83 -106 q 32 -158 -22 -158 q -44 -158 -73 -149 l -73 6 l -39 6 q -36 -34 -21 -62 q -1 -99 33 -99 q 107 -99 107 63 l 107 586 q 107 631 92 647 q 77 663 33 664 l 33 688 l 271 688 z"},"V":{"x_min":0,"x_max":615,"ha":615,"o":"m 615 664 q 562 664 514 543 l 314 42 l 286 42 l 110 552 q 71 663 19 664 l 19 688 l 191 688 l 191 664 q 172 664 172 650 q 172 642 178 626 l 333 180 l 432 432 q 473 536 473 599 q 473 663 396 664 l 396 688 l 615 688 z"},"\"":{"x_min":0,"x_max":270,"ha":270,"o":"m 236 591 q 236 562 226 503 q 215 444 215 390 l 178 390 q 178 444 168 503 q 159 562 159 591 q 159 627 197 627 q 212 627 224 617 q 236 606 236 591 z m 110 591 q 110 562 101 503 q 91 444 91 390 l 53 390 q 53 444 44 503 q 34 562 34 591 q 34 627 71 627 q 87 627 99 617 q 110 606 110 591 z"},"7":{"x_min":0,"x_max":552,"ha":552,"o":"m 512 657 q 397 511 346 379 q 290 237 285 63 l 196 63 q 202 173 224 250 q 249 334 307 420 q 363 504 386 534 l 450 614 l 191 614 q 149 614 133 598 q 117 582 116 539 l 93 539 l 93 710 l 116 710 l 116 707 q 116 688 143 688 l 512 688 z"},"S":{"x_min":0,"x_max":448,"ha":448,"o":"m 421 245 q 421 163 345 104 q 275 49 190 49 q 126 49 47 80 l 47 255 l 82 255 q 82 188 120 137 q 161 82 227 82 q 278 82 311 112 q 344 143 344 194 q 344 247 294 293 q 274 312 200 361 q 138 403 107 429 q 87 446 74 475 q 62 499 62 526 q 62 603 133 655 q 198 702 277 702 q 321 702 393 677 l 393 523 l 357 523 q 354 582 323 623 q 288 668 232 668 q 192 668 165 644 q 137 618 137 578 q 137 528 193 478 q 214 458 291 407 q 358 362 379 341 q 421 299 421 245 z"},"}":{"x_min":0,"x_max":479,"ha":479,"o":"m 339 290 q 223 264 223 182 q 223 157 230 123 q 244 59 244 31 q 244 -42 194 -94 q 147 -144 73 -156 l 73 -137 q 119 -130 149 -101 q 181 -70 181 -25 q 181 -2 175 30 q 161 110 161 133 q 161 242 300 297 q 162 354 162 468 q 162 495 175 556 q 184 598 184 622 q 184 709 73 735 l 73 753 q 147 739 194 690 q 245 637 245 564 q 245 537 232 478 q 223 439 223 423 q 223 376 259 344 q 291 315 339 308 z"},"Z":{"x_min":0,"x_max":594,"ha":594,"o":"m 581 243 l 541 42 l 518 42 q 517 63 506 63 l 38 63 l 38 91 l 440 664 l 295 664 q 204 664 161 640 q 105 607 101 524 l 67 524 l 67 709 l 90 709 q 91 688 108 688 l 546 688 l 546 659 l 143 86 l 290 86 q 400 86 454 113 q 527 148 546 243 z"},"x":{"x_min":0,"x_max":521,"ha":521,"o":"m 513 63 l 338 63 l 338 86 q 354 86 354 97 q 354 105 346 115 l 247 258 q 174 172 174 128 q 174 87 232 86 l 232 63 l 15 63 l 15 86 q 77 92 167 201 l 232 281 l 150 397 q 88 485 35 487 l 35 510 l 213 510 l 213 487 q 194 486 194 473 q 194 467 198 461 l 280 341 q 344 415 344 451 q 344 486 295 487 l 295 510 l 493 510 l 493 487 q 444 484 381 421 q 358 397 295 318 l 394 179 q 458 89 513 86 z"},")":{"x_min":0,"x_max":319,"ha":319,"o":"m 254 208 q 254 37 180 -111 q 146 -178 66 -281 l 49 -261 q 161 5 161 205 q 161 371 124 496 q 107 553 50 681 l 64 703 q 149 594 180 532 q 254 386 254 208 z"},"&":{"x_min":0,"x_max":635,"ha":635,"o":"m 644 201 q 563 49 513 49 q 456 49 346 185 q 296 121 268 96 q 215 49 164 49 q 110 49 72 92 q 35 133 35 188 q 35 286 198 410 q 145 511 145 567 q 145 633 215 670 q 272 702 344 702 q 388 702 418 683 q 455 660 455 619 q 455 579 415 542 q 396 525 342 491 q 306 468 282 451 q 351 339 386 287 q 431 357 444 451 l 619 451 l 619 426 q 498 426 402 265 q 501 133 545 133 q 576 133 623 210 z m 374 617 q 374 644 355 660 q 336 675 308 675 q 272 675 251 652 q 229 628 229 592 q 229 551 271 471 q 322 517 337 535 q 374 579 374 617 z m 333 202 q 251 312 208 391 q 128 308 128 229 q 128 187 149 156 q 173 122 214 122 q 268 122 333 202 z"},"_":{"x_min":0,"x_max":500,"ha":500,"o":"m 506 -125 l -6 -125 l -6 -75 l 506 -75 z"},"v":{"x_min":0,"x_max":479,"ha":479,"o":"m 484 487 q 428 481 379 364 l 242 41 l 216 41 l 91 392 q 58 486 6 487 l 6 510 l 164 510 l 164 487 q 145 487 145 469 q 145 459 150 446 l 254 153 l 315 306 q 346 382 346 429 q 346 486 275 487 l 275 510 l 484 510 z"},"O":{"x_min":0,"x_max":729,"ha":729,"o":"m 692 405 q 692 308 638 220 q 583 133 497 89 q 418 49 332 49 q 207 49 122 134 q 37 219 37 344 q 37 486 142 594 q 248 702 390 702 q 553 702 645 569 q 692 500 692 405 z m 610 319 q 610 409 573 488 q 532 574 459 616 q 389 656 329 656 q 232 656 174 588 q 120 524 120 426 q 120 295 195 198 q 277 92 404 92 q 495 92 554 161 q 610 226 610 319 z"},"(":{"x_min":0,"x_max":319,"ha":319,"o":"m 275 -259 l 260 -281 q 176 -175 144 -111 q 70 35 70 214 q 70 384 144 532 q 180 604 259 703 l 275 683 q 162 423 162 217 q 162 52 200 -74 q 215 -124 275 -259 z"},"C":{"x_min":0,"x_max":615,"ha":615,"o":"m 589 182 q 434 49 307 49 q 186 49 109 139 q 37 224 37 347 q 37 540 202 649 q 281 702 392 702 q 488 702 574 671 l 574 524 l 540 524 q 533 595 475 635 q 423 671 348 671 q 240 671 178 589 q 121 514 121 403 q 121 286 185 206 q 253 120 367 120 q 475 120 589 212 z"},"W":{"x_min":0,"x_max":969,"ha":969,"o":"m 968 664 q 915 663 861 528 l 666 40 l 637 40 l 495 453 q 447 367 418 293 l 318 40 l 290 40 l 125 525 q 93 623 62 648 q 45 663 27 664 l 27 688 l 198 688 l 198 664 q 180 664 180 648 q 180 644 182 638 l 336 180 l 418 385 q 454 475 454 556 q 454 660 372 664 l 372 688 l 544 688 l 544 664 q 523 664 523 648 q 523 644 525 638 l 682 180 l 782 433 q 828 549 828 598 q 828 637 807 651 q 791 663 749 664 l 749 688 l 968 688 z"},"A":{"x_min":0,"x_max":604,"ha":604,"o":"m 603 63 l 428 63 l 428 86 l 439 86 q 447 86 447 103 q 447 107 445 113 l 387 283 l 173 283 q 140 188 140 142 q 140 117 156 102 q 172 86 197 86 l 223 86 l 223 63 l 4 63 l 4 86 q 60 89 104 203 l 304 713 l 333 713 l 506 214 q 524 162 540 135 q 568 88 603 86 z m 376 313 l 287 573 l 185 313 z"},"f":{"x_min":0,"x_max":312,"ha":312,"o":"m 339 597 l 304 597 q 302 687 244 687 q 205 687 185 642 q 169 608 169 564 q 169 473 254 473 l 294 473 l 294 450 l 175 450 l 175 163 q 175 122 192 104 q 208 87 250 86 l 250 63 l 26 63 l 26 86 q 67 87 84 104 q 101 122 101 163 l 101 450 l 26 450 l 26 473 l 47 473 q 86 473 105 539 q 126 615 168 666 q 221 730 290 730 q 308 730 339 721 z"},"Q":{"x_min":0,"x_max":729,"ha":729,"o":"m 724 -33 q 678 -84 661 -100 q 617 -139 582 -139 q 541 -139 439 -55 q 327 38 286 57 q 271 63 258 63 q 220 63 156 -1 l 156 29 q 179 61 205 83 q 126 116 82 189 q 40 259 40 347 q 40 539 217 652 q 296 702 394 702 q 562 702 650 564 q 693 498 693 407 q 693 281 611 183 q 529 84 405 59 q 441 50 513 -9 q 585 -69 620 -69 q 654 -69 724 -1 z m 613 323 q 613 411 574 490 q 532 574 460 618 q 393 659 330 659 q 235 659 176 589 q 121 523 121 427 q 121 244 261 142 q 326 95 405 95 q 497 95 556 164 q 613 229 613 323 z"},"w":{"x_min":0,"x_max":750,"ha":750,"o":"m 757 487 q 717 481 686 431 q 669 406 644 346 l 516 41 l 487 41 l 382 341 q 361 301 347 272 l 330 237 q 318 213 313 201 l 248 41 l 218 41 l 106 366 q 87 420 75 441 q 49 485 13 487 l 13 510 l 169 510 l 169 487 q 150 486 150 472 q 150 465 153 455 l 258 152 l 313 285 q 348 369 348 428 q 348 485 279 487 l 279 510 l 438 510 l 438 487 q 417 487 417 473 q 417 466 421 452 l 526 152 l 586 299 q 619 378 619 430 q 619 487 547 487 l 547 510 l 757 510 z"},"-":{"x_min":0,"x_max":462,"ha":462,"o":"m 408 221 l 51 221 l 51 261 l 408 261 z"},"E":{"x_min":0,"x_max":479,"ha":479,"o":"m 470 243 l 430 42 l 406 42 q 405 63 387 63 l 31 63 l 31 86 q 75 87 90 103 q 105 120 105 164 l 105 586 q 105 630 90 647 q 75 663 31 664 l 31 688 l 380 688 q 412 688 413 712 l 436 712 l 436 525 l 400 525 q 398 664 233 664 l 196 664 q 190 611 190 569 q 190 406 327 406 l 375 406 l 375 372 l 196 367 l 196 86 l 248 86 q 412 86 436 243 z"},"s":{"x_min":0,"x_max":365,"ha":365,"o":"m 339 200 q 339 135 281 90 q 228 49 161 49 q 108 49 40 78 l 40 213 l 73 213 q 77 158 104 122 q 135 80 188 80 q 224 80 249 102 q 273 125 273 161 q 273 197 243 226 q 229 239 182 269 q 123 306 120 308 q 80 336 68 358 q 55 380 55 402 q 55 459 108 494 q 155 524 215 524 q 259 524 311 504 l 311 376 l 275 376 q 275 423 250 458 q 222 496 177 496 q 151 496 135 480 q 119 463 119 438 q 119 407 149 380 q 162 368 205 341 q 284 292 292 285 q 339 246 339 200 z"},">":{"x_min":0,"x_max":667,"ha":667,"o":"m 597 354 l 69 132 l 69 189 l 527 377 l 69 566 l 69 624 l 597 401 z"},"l":{"x_min":0,"x_max":271,"ha":271,"o":"m 253 63 l 29 63 l 29 86 q 70 87 87 104 q 104 122 104 163 l 104 627 q 104 672 67 672 q 51 672 29 664 l 29 688 l 199 754 l 199 734 q 178 724 178 699 l 178 163 q 178 122 195 104 q 212 87 253 86 z"},"8":{"x_min":0,"x_max":552,"ha":552,"o":"m 521 239 q 521 145 390 80 q 329 49 248 49 q 170 49 114 80 q 45 119 45 191 q 45 246 98 294 q 127 322 197 363 q 216 375 232 385 q 222 391 204 400 q 145 431 123 452 q 88 486 88 538 q 88 611 169 660 q 239 702 317 702 q 375 702 420 679 q 476 650 476 597 q 476 550 419 497 q 395 474 325 424 q 341 415 373 399 q 443 362 471 338 q 521 295 521 239 z m 396 581 q 396 627 360 652 q 329 674 280 674 q 232 674 199 649 q 161 622 161 576 q 161 528 212 489 q 238 468 304 437 q 396 517 396 581 z m 437 210 q 437 277 357 317 q 319 336 256 373 q 198 335 173 306 q 134 262 134 210 q 134 148 180 112 q 221 78 284 78 q 344 78 389 113 q 437 151 437 210 z"},"\\":{"x_min":0,"x_max":510,"ha":510,"o":"m 455 45 l 401 45 l 55 759 l 109 759 z"},"e":{"x_min":0,"x_max":438,"ha":438,"o":"m 418 186 q 309 49 206 49 q 126 49 72 118 q 21 181 21 262 q 21 359 83 438 q 149 523 244 523 q 316 523 360 470 q 401 421 403 347 l 88 347 q 87 328 87 319 q 87 241 127 183 q 172 117 247 117 q 331 117 418 218 z m 323 371 q 318 421 292 455 q 262 492 214 492 q 167 492 132 455 q 100 420 93 371 z"},"b":{"x_min":0,"x_max":510,"ha":510,"o":"m 492 348 q 492 286 465 225 q 439 164 394 123 q 353 86 312 74 q 277 63 216 63 l 171 63 q 132 63 119 61 q 90 54 79 32 l 46 32 q 74 83 74 148 l 74 629 q 74 672 41 672 q 26 672 0 661 l 0 685 l 162 752 l 162 732 q 148 724 148 706 l 148 372 q 217 451 238 469 q 299 523 354 523 q 422 523 459 467 q 492 418 492 348 z m 418 298 q 418 360 396 403 q 369 458 312 458 q 235 458 185 368 q 142 292 142 209 q 142 178 148 139 q 208 103 275 103 q 352 103 389 166 q 418 217 418 298 z"},"%":{"x_min":0,"x_max":719,"ha":719,"o":"m 678 241 q 678 168 634 113 q 587 53 516 53 q 456 53 418 97 q 383 138 383 199 q 383 273 426 329 q 474 390 546 390 q 607 390 644 345 q 678 304 678 241 z m 597 715 l 164 33 l 122 33 l 555 715 z m 336 546 q 336 473 291 418 q 243 359 171 359 q 112 359 75 403 q 41 445 41 506 q 41 578 85 634 q 133 695 204 695 q 265 695 302 650 q 336 609 336 546 z m 622 192 q 622 249 597 297 q 567 358 516 358 q 478 358 458 325 q 441 297 441 256 q 441 200 465 149 q 494 87 544 87 q 622 87 622 192 z m 278 501 q 278 556 254 604 q 224 663 174 663 q 135 663 115 629 q 99 601 99 558 q 99 500 123 452 q 153 391 205 391 q 278 391 278 501 z"},"m":{"x_min":0,"x_max":802,"ha":802,"o":"m 785 63 l 615 63 l 615 86 q 636 87 636 109 l 636 389 q 636 468 584 468 q 514 468 469 361 q 435 276 435 194 q 435 141 448 118 q 466 87 515 86 l 515 63 l 346 63 l 346 86 q 367 87 367 104 l 367 405 q 367 430 355 447 q 341 467 318 467 q 246 467 202 360 q 167 276 167 192 q 167 140 181 117 q 199 86 247 86 l 247 63 l 25 63 l 25 86 q 66 87 82 105 q 99 122 99 163 l 99 418 q 99 459 67 459 q 51 459 25 448 l 25 473 l 150 522 l 173 522 l 173 374 q 226 444 252 470 q 308 523 361 523 q 441 523 441 410 q 441 397 440 379 q 496 448 521 472 q 578 524 630 524 q 667 524 689 498 q 710 474 710 436 l 710 163 q 710 122 727 104 q 744 87 785 86 z"},"#":{"x_min":0,"x_max":667,"ha":667,"o":"m 622 233 l 462 233 l 419 33 l 369 33 l 411 233 l 195 233 l 153 33 l 103 33 l 144 233 l 44 233 l 44 284 l 155 284 l 195 474 l 44 474 l 44 524 l 205 524 l 248 725 l 299 725 l 256 524 l 471 524 l 513 725 l 563 725 l 521 524 l 622 524 l 622 474 l 512 474 l 472 284 l 622 284 z m 461 474 l 246 474 l 206 285 l 421 285 z"},",":{"x_min":0,"x_max":203,"ha":203,"o":"m 147 100 q 147 64 121 25 q 99 -6 62 -30 q 62 24 48 32 q 54 34 66 41 q 83 55 83 69 q 58 78 58 108 q 58 126 71 138 q 83 151 101 151 q 121 151 134 136 q 147 122 147 100 z"},"n":{"x_min":0,"x_max":552,"ha":552,"o":"m 532 63 l 362 63 l 362 86 q 382 87 382 110 l 382 412 q 382 468 335 468 q 258 468 208 358 q 167 268 167 181 q 167 129 182 110 q 199 87 248 86 l 248 63 l 25 63 l 25 86 q 66 87 83 104 q 100 122 100 163 l 100 412 q 100 460 67 460 q 56 460 25 448 l 25 473 l 152 524 l 173 524 l 173 364 q 225 434 259 466 q 321 524 375 524 q 457 524 457 418 l 457 163 q 457 122 474 104 q 491 87 532 86 z"},"h":{"x_min":0,"x_max":552,"ha":552,"o":"m 532 63 l 361 63 l 361 86 q 383 87 383 113 l 383 404 q 383 468 331 468 q 257 468 208 358 q 167 269 167 185 q 167 86 227 86 l 246 86 l 246 63 l 24 63 l 24 86 q 65 87 82 105 q 98 122 98 163 l 98 645 q 98 673 66 673 q 48 673 24 664 l 24 688 l 192 754 l 192 733 q 172 726 172 698 l 172 362 q 287 524 377 524 q 457 524 457 417 l 457 163 q 457 121 474 104 q 490 87 532 86 z"},"z":{"x_min":0,"x_max":448,"ha":448,"o":"m 417 41 l 394 41 q 392 63 354 63 l 30 63 l 30 86 l 315 487 l 223 487 q 100 487 93 377 l 61 377 l 61 532 l 84 532 l 84 528 q 84 510 110 510 l 405 510 l 405 486 l 119 86 l 223 86 q 379 86 384 211 l 417 211 z"},"B":{"x_min":0,"x_max":542,"ha":542,"o":"m 507 283 q 507 190 427 125 q 352 63 257 63 l 28 63 l 28 86 q 72 87 87 104 q 103 120 103 164 l 103 587 q 103 631 87 647 q 72 663 28 664 l 28 688 l 324 688 q 396 688 431 668 q 479 642 479 577 q 479 477 340 395 q 418 394 455 376 q 507 351 507 283 z m 391 512 q 391 572 361 615 q 328 665 270 665 q 222 665 193 641 l 193 414 l 288 414 q 391 414 391 512 z m 414 223 q 414 300 367 346 q 320 392 243 392 l 193 392 l 193 134 q 243 95 298 95 q 353 95 384 132 q 414 167 414 223 z"},"K":{"x_min":0,"x_max":583,"ha":583,"o":"m 597 63 l 439 63 l 193 389 l 193 164 q 193 89 268 86 l 268 63 l 29 63 l 29 86 q 72 87 88 104 q 103 120 103 164 l 103 586 q 103 631 88 647 q 73 663 29 664 l 29 688 l 268 688 l 268 664 q 224 663 208 647 q 193 631 193 586 l 193 396 l 314 507 q 394 586 394 631 q 394 663 344 664 l 344 688 l 568 688 l 568 664 q 505 656 433 586 l 274 434 l 446 205 q 534 86 597 86 z"},"R":{"x_min":0,"x_max":542,"ha":542,"o":"m 565 63 l 448 63 q 412 63 385 105 l 192 406 l 192 164 q 192 89 267 86 l 267 63 l 27 63 l 27 86 q 71 87 86 104 q 102 120 102 164 l 102 587 q 102 631 86 647 q 71 663 27 664 l 27 688 l 338 688 q 476 688 476 580 q 476 460 321 372 l 430 203 q 503 90 565 86 z m 376 511 q 376 569 351 612 q 321 665 267 665 q 227 665 192 640 l 192 437 q 249 395 290 395 q 376 395 376 511 z"},"T":{"x_min":0,"x_max":521,"ha":521,"o":"m 518 524 l 483 524 q 482 664 335 664 l 309 664 l 309 164 q 309 88 383 86 l 383 63 l 144 63 l 144 86 q 188 87 203 104 q 218 120 218 164 l 218 664 l 185 664 q 49 664 45 524 l 11 524 l 11 709 l 32 709 q 39 688 51 688 l 478 688 q 495 688 495 709 l 518 709 z"},"P":{"x_min":0,"x_max":479,"ha":479,"o":"m 494 576 q 494 496 421 425 q 348 354 268 354 q 234 354 193 372 l 193 164 q 193 89 268 86 l 268 63 l 29 63 l 29 86 q 73 87 88 103 q 103 120 103 164 l 103 587 q 103 631 88 647 q 72 663 29 664 l 29 688 l 338 688 q 494 688 494 576 z m 397 514 q 397 575 371 616 q 340 664 282 664 q 236 664 193 632 l 193 438 q 256 391 305 391 q 397 391 397 514 z"},"|":{"x_min":0,"x_max":510,"ha":510,"o":"m 282 -145 l 229 -145 l 229 754 l 282 754 z"},"t":{"x_min":0,"x_max":292,"ha":292,"o":"m 283 451 l 163 451 l 163 137 q 163 106 188 106 q 211 106 259 146 q 264 150 267 152 l 267 124 q 184 49 135 49 q 89 49 89 120 l 89 451 l 14 451 l 14 473 q 57 473 75 490 q 93 507 93 550 l 93 624 l 193 664 l 193 639 q 163 631 163 569 q 163 502 195 483 q 212 473 242 473 l 283 473 z"},"M":{"x_min":0,"x_max":885,"ha":885,"o":"m 879 63 l 639 63 l 639 86 q 677 87 691 102 q 706 117 706 154 q 706 161 705 171 l 667 559 q 583 411 547 327 l 425 40 l 403 40 l 174 608 l 158 433 q 146 314 146 245 q 146 91 224 86 l 224 63 l 3 63 l 3 86 q 45 96 70 158 q 82 184 99 258 q 120 350 129 455 l 142 584 q 142 590 142 604 q 142 640 127 652 q 114 663 78 664 l 78 688 l 237 688 l 447 171 l 567 455 q 635 615 656 688 l 831 688 l 831 664 q 791 663 775 652 q 754 639 754 602 q 754 596 755 590 l 792 201 q 798 137 809 119 q 826 88 879 86 z"},"g":{"x_min":0,"x_max":500,"ha":500,"o":"m 491 16 q 491 -69 375 -120 q 283 -160 186 -160 q 116 -160 60 -138 q -17 -108 -17 -49 q -17 11 78 55 q 138 83 223 99 q 187 125 187 153 q 187 187 253 239 q 248 238 235 236 q 198 230 183 230 q 126 230 87 260 q 44 292 44 347 q 44 420 116 474 q 183 523 258 523 q 290 523 349 499 q 416 472 454 472 l 488 472 l 488 449 l 389 449 q 400 423 400 402 q 400 361 371 322 q 354 298 310 260 q 251 210 251 189 q 251 161 345 130 q 412 108 438 93 q 491 62 491 16 z m 324 375 q 324 422 299 456 q 272 494 227 494 q 178 494 149 458 q 123 425 123 375 q 123 327 148 293 q 176 256 222 256 q 269 256 297 293 q 324 328 324 375 z m 422 -12 q 422 19 378 41 q 372 44 309 66 l 253 86 q 52 36 52 -41 q 52 -89 115 -113 q 161 -130 217 -130 q 287 -130 345 -105 q 422 -73 422 -12 z"},"j":{"x_min":0,"x_max":260,"ha":260,"o":"m 185 680 q 185 661 171 647 q 157 634 138 634 q 119 634 105 647 q 92 661 92 680 q 92 699 105 713 q 119 727 137 727 q 157 727 171 713 q 185 700 185 680 z m 175 100 q 175 16 125 -67 q 67 -161 -11 -161 q -36 -161 -63 -149 l -63 -17 l -28 -17 q -28 -54 -16 -81 q 1 -115 34 -115 q 66 -115 85 -73 q 101 -39 101 -2 l 101 413 q 101 458 66 458 q 49 458 26 447 l 26 472 l 153 523 l 175 523 z"},"i":{"x_min":0,"x_max":271,"ha":271,"o":"m 188 680 q 188 661 174 647 q 160 634 141 634 q 121 634 108 647 q 94 661 94 680 q 94 699 107 713 q 121 727 140 727 q 160 727 174 714 q 188 700 188 680 z m 252 63 l 29 63 l 29 86 q 70 87 87 104 q 104 122 104 163 l 104 430 q 104 460 68 460 q 56 460 41 454 q 32 451 29 450 l 29 475 l 154 524 l 178 524 l 178 163 q 178 122 195 104 q 211 87 252 86 z"},"y":{"x_min":0,"x_max":469,"ha":469,"o":"m 477 487 q 445 485 429 467 q 407 444 385 386 l 218 -48 q 179 -148 72 -158 l -7 -64 l 20 -43 q 58 -91 105 -91 q 157 -91 183 -39 q 191 -22 216 40 l 224 60 l 90 392 q 72 437 59 455 q 35 486 -1 487 l -1 510 l 157 510 l 157 487 q 139 486 139 475 q 139 470 142 463 l 263 162 l 311 289 q 343 375 343 432 q 343 487 273 487 l 273 510 l 477 510 z"},"@":{"x_min":0,"x_max":917,"ha":917,"o":"m 897 143 q 851 8 734 -73 q 618 -155 476 -155 q 355 -155 257 -100 q 154 -42 102 62 q 50 165 50 284 q 50 483 181 619 q 314 756 512 756 q 666 756 760 667 q 857 575 857 422 q 857 229 720 116 q 666 71 594 71 q 517 71 517 140 q 517 159 529 215 q 477 152 449 126 q 392 77 343 77 q 296 77 271 111 q 248 141 248 189 q 248 268 295 350 q 338 425 405 480 q 466 531 520 531 q 583 531 603 462 l 618 518 l 682 527 l 614 298 q 578 176 578 144 q 578 104 623 104 q 712 104 777 222 q 832 323 832 420 q 832 562 742 646 q 653 731 511 731 q 390 731 292 667 q 195 603 144 492 q 89 376 89 257 q 89 153 140 62 q 192 -34 281 -81 q 371 -129 477 -129 q 608 -129 717 -54 q 826 20 871 143 z m 584 433 q 584 508 518 508 q 443 508 376 388 q 316 280 316 198 q 316 129 378 129 q 428 129 484 194 q 529 246 554 305 q 584 379 584 433 z"},".":{"x_min":0,"x_max":203,"ha":203,"o":"m 145 107 q 145 89 132 76 q 119 63 102 63 q 83 63 70 76 q 57 89 57 107 q 57 125 70 138 q 83 151 101 151 q 119 151 132 138 q 145 125 145 107 z"},"p":{"x_min":0,"x_max":531,"ha":531,"o":"m 509 343 q 509 236 440 146 q 365 49 261 49 q 218 49 165 72 l 165 -43 q 165 -85 182 -103 q 199 -120 241 -121 l 241 -145 l 18 -145 l 18 -121 q 59 -120 75 -102 q 92 -84 92 -43 l 92 423 q 92 460 63 460 q 53 460 18 447 l 18 472 l 143 523 l 165 523 l 165 364 q 218 438 250 467 q 309 524 366 524 q 434 524 474 465 q 509 414 509 343 z m 436 298 q 436 361 414 407 q 386 468 330 468 q 252 468 202 366 q 160 281 160 196 q 160 173 165 134 q 233 79 286 79 q 359 79 401 156 q 436 219 436 298 z"},"X":{"x_min":0,"x_max":604,"ha":604,"o":"m 598 63 l 403 63 l 403 86 q 423 87 423 102 q 423 106 419 112 l 279 347 q 167 201 167 136 q 167 87 233 86 l 233 63 l 1 63 l 1 86 q 65 92 145 203 l 265 371 l 156 552 q 92 659 32 664 l 32 688 l 223 688 l 223 664 q 203 663 203 652 q 203 648 205 645 l 322 449 q 408 570 408 616 q 408 663 334 664 l 334 688 l 568 688 l 568 664 q 500 654 425 552 l 334 427 l 490 171 q 521 119 560 99 q 575 90 598 86 z"},"*":{"x_min":0,"x_max":332,"ha":332,"o":"m 312 455 l 197 480 q 195 475 192 471 l 295 411 l 246 361 l 182 461 q 176 458 172 458 l 203 342 l 132 342 l 158 458 q 154 459 150 461 l 86 361 l 37 411 l 140 471 q 137 477 136 480 l 20 455 l 20 525 l 135 494 q 136 500 138 504 l 39 568 l 88 618 l 148 515 q 153 518 158 519 l 132 635 l 203 635 l 172 520 q 178 518 184 515 l 244 618 l 293 568 l 194 504 q 197 499 197 494 l 312 525 z m 183 488 q 183 505 166 505 q 149 505 149 488 q 149 471 166 471 q 183 471 183 488 z"},"Y":{"x_min":0,"x_max":583,"ha":583,"o":"m 604 664 q 550 663 487 555 l 339 303 l 339 164 q 339 89 413 86 l 413 63 l 174 63 l 174 86 q 218 87 233 104 q 249 120 249 164 l 249 303 l 126 548 q 102 598 84 621 q 52 664 17 664 l 17 688 l 194 688 l 194 664 q 176 664 176 651 q 176 646 178 642 l 331 337 q 450 523 450 608 q 450 642 426 655 q 409 664 370 664 l 370 688 l 604 688 z"},"c":{"x_min":0,"x_max":448,"ha":448,"o":"m 411 183 q 304 49 204 49 q 123 49 70 115 q 22 176 22 259 q 22 363 91 442 q 163 524 265 524 q 326 524 397 492 l 397 365 l 362 365 q 360 421 326 458 q 292 495 236 495 q 167 495 127 432 q 92 378 92 305 q 92 230 129 176 q 171 114 243 114 q 315 114 411 217 z"},"!":{"x_min":0,"x_max":317,"ha":317,"o":"m 195 233 l 144 182 l 144 416 q 144 447 88 546 q 125 546 195 632 z m 214 107 q 214 89 201 76 q 188 63 170 63 q 152 63 139 76 q 126 89 126 107 q 126 125 139 138 q 152 151 170 151 q 188 151 201 138 q 214 125 214 107 z"},"/":{"x_min":0,"x_max":278,"ha":278,"o":"m 250 696 l 64 -68 l 24 -68 l 208 696 z"},"[":{"x_min":0,"x_max":312,"ha":312,"o":"m 263 -49 l 104 -49 l 104 754 l 263 754 l 263 724 l 174 724 l 174 -19 l 263 -19 z"},"6":{"x_min":0,"x_max":552,"ha":552,"o":"m 510 252 q 510 167 437 106 q 369 49 281 49 q 173 49 113 137 q 61 214 61 327 q 61 467 135 577 q 219 702 353 702 q 408 702 467 678 l 467 510 l 431 510 q 430 573 407 618 q 377 675 321 675 q 265 675 221 618 q 186 574 168 510 q 147 435 147 373 q 147 352 152 311 q 233 406 335 406 q 412 406 458 368 q 510 327 510 252 z m 417 224 q 417 281 389 322 q 356 368 301 368 q 243 368 209 323 q 179 283 179 223 q 179 164 208 123 q 241 75 297 75 q 354 75 387 123 q 417 165 417 224 z"},"r":{"x_min":0,"x_max":396,"ha":396,"o":"m 384 365 l 350 365 q 349 454 298 454 q 235 454 198 345 q 169 263 169 185 q 169 124 194 104 q 216 86 279 86 l 279 63 l 25 63 l 25 86 q 66 87 83 104 q 100 122 100 163 l 100 416 q 100 459 68 459 q 55 459 25 448 l 25 472 l 153 524 l 175 524 l 175 365 q 267 523 346 523 q 362 523 384 516 z"},"2":{"x_min":0,"x_max":552,"ha":552,"o":"m 505 213 l 470 40 l 447 40 l 447 46 q 447 63 429 63 l 48 63 l 48 86 l 190 258 q 336 435 367 511 q 385 556 385 586 q 385 625 361 651 q 336 677 298 677 q 231 677 186 609 q 146 552 141 480 l 107 480 l 107 629 q 224 702 327 702 q 389 702 432 672 q 480 639 480 579 q 480 517 427 449 q 405 421 328 344 l 120 139 l 396 139 q 469 139 481 213 z"},"{":{"x_min":0,"x_max":479,"ha":479,"o":"m 406 -156 q 333 -143 285 -93 q 234 -41 234 32 q 234 62 247 119 q 256 160 256 173 q 256 220 221 252 q 188 283 140 289 l 140 307 q 257 333 257 414 q 257 437 249 474 q 236 535 236 565 q 236 639 285 691 q 332 741 406 753 l 406 733 q 361 727 331 698 q 298 667 298 622 q 298 600 304 566 q 319 488 319 463 q 319 354 179 299 q 317 243 317 128 q 317 104 304 41 q 296 1 296 -25 q 296 -113 406 -139 z"},"9":{"x_min":0,"x_max":552,"ha":552,"o":"m 502 422 q 502 327 467 244 q 430 154 359 100 q 294 49 214 49 q 154 49 99 74 l 99 240 l 134 240 q 135 179 158 134 q 187 76 241 76 q 332 76 379 192 q 415 280 415 386 q 415 402 413 438 q 323 346 224 346 q 151 346 104 387 q 55 430 55 501 q 55 584 128 645 q 197 702 281 702 q 391 702 451 613 q 502 537 502 422 z m 384 529 q 384 585 355 628 q 323 678 269 678 q 209 678 176 630 q 146 588 146 526 q 146 467 177 427 q 210 382 268 382 q 323 382 355 430 q 384 471 384 529 z"}," ":{"x_min":0,"x_max":244,"ha":244,"o":""},"I":{"x_min":0,"x_max":302,"ha":302,"o":"m 274 63 l 36 63 l 36 86 q 79 87 94 104 q 110 120 110 164 l 110 587 q 110 631 94 647 q 79 663 36 664 l 36 688 l 274 688 l 274 664 q 230 663 215 647 q 200 631 200 587 l 200 164 q 200 89 274 86 z"},"H":{"x_min":0,"x_max":688,"ha":688,"o":"m 657 63 l 418 63 l 418 86 q 461 87 477 104 q 492 121 492 164 l 492 389 l 194 389 l 194 164 q 194 88 269 86 l 269 63 l 30 63 l 30 86 q 73 87 89 104 q 104 120 104 164 l 104 587 q 104 631 89 647 q 73 663 30 664 l 30 688 l 269 688 l 269 664 q 225 663 210 647 q 194 631 194 587 l 194 419 l 492 419 l 492 587 q 492 631 477 647 q 461 663 418 664 l 418 688 l 657 688 l 657 664 q 613 663 598 647 q 583 631 583 587 l 583 164 q 583 120 598 103 q 613 87 657 86 z"},"4":{"x_min":0,"x_max":552,"ha":552,"o":"m 492 241 l 392 241 l 392 148 q 392 86 454 86 l 468 86 l 468 63 l 223 63 l 223 86 l 243 86 q 312 86 312 148 l 312 241 l 31 241 l 31 264 l 223 506 q 316 625 368 707 l 392 707 l 392 291 l 492 291 z m 312 291 l 312 549 q 245 485 190 416 l 91 291 z"},"~":{"x_min":0,"x_max":667,"ha":667,"o":"m 595 448 q 594 390 563 351 q 530 308 473 308 q 438 308 379 330 l 291 367 q 216 397 184 397 q 112 397 95 309 l 72 309 q 74 366 102 405 q 134 449 189 449 q 236 449 375 390 q 449 358 482 358 q 521 358 545 384 q 568 408 572 448 z"},"D":{"x_min":0,"x_max":708,"ha":708,"o":"m 672 441 q 672 273 564 168 q 455 63 287 63 l 31 63 l 31 86 q 75 87 90 104 q 105 120 105 164 l 105 587 q 105 631 90 647 q 75 663 31 664 l 31 688 l 415 688 q 672 688 672 441 z m 581 377 q 581 666 337 666 q 252 666 196 628 l 196 140 q 274 95 348 95 q 460 95 524 183 q 581 261 581 377 z"},"^":{"x_min":0,"x_max":469,"ha":469,"o":"m 451 337 l 406 337 l 235 624 l 64 337 l 18 337 l 229 688 l 243 688 z"},"0":{"x_min":0,"x_max":552,"ha":552,"o":"m 515 427 q 515 299 445 183 q 365 49 244 49 q 186 49 136 87 q 89 123 65 178 q 38 238 38 323 q 38 449 104 567 q 183 705 300 705 q 404 705 463 614 q 515 536 515 427 z m 443 352 q 443 535 346 613 q 298 651 257 651 q 174 651 134 561 q 105 494 105 398 q 105 299 150 212 q 205 106 295 106 q 376 106 415 194 q 443 259 443 352 z"},"F":{"x_min":0,"x_max":427,"ha":427,"o":"m 435 523 l 399 523 q 399 601 353 635 q 313 664 231 664 l 194 664 q 189 611 189 568 q 189 480 217 441 q 250 394 333 394 l 374 394 l 374 360 l 194 356 l 194 164 q 194 89 269 86 l 269 63 l 30 63 l 30 86 q 73 87 89 104 q 104 120 104 164 l 104 587 q 104 631 89 647 q 73 663 30 664 l 30 688 l 399 688 q 411 688 413 709 l 435 709 z"},"`":{"x_min":0,"x_max":333,"ha":333,"o":"m 200 593 l 182 583 l 114 659 q 82 695 82 706 q 82 736 111 736 q 129 736 144 706 z"},"k":{"x_min":0,"x_max":500,"ha":500,"o":"m 512 63 l 362 63 l 173 299 l 173 151 q 170 88 248 86 l 248 63 l 25 63 l 25 86 q 66 87 83 104 q 99 122 99 163 l 99 620 q 99 672 64 672 q 50 672 25 664 l 25 688 l 193 754 l 193 734 q 173 728 173 705 l 173 306 l 285 397 q 322 430 322 457 q 322 487 263 488 l 263 510 l 492 510 l 492 488 q 433 487 343 413 l 244 331 l 340 209 q 437 87 512 86 z"},"u":{"x_min":0,"x_max":552,"ha":552,"o":"m 531 101 l 396 47 l 373 47 l 373 209 q 319 137 286 106 q 226 49 168 49 q 88 49 88 163 l 88 430 q 88 473 42 473 q 33 473 15 470 l 15 493 l 183 522 l 183 503 q 162 498 162 470 l 162 167 q 162 104 210 104 q 285 104 336 213 q 378 303 378 387 q 378 474 326 474 q 316 474 298 470 l 298 493 l 468 522 l 468 503 q 446 500 446 470 l 446 156 q 446 110 480 110 q 500 110 531 125 z"},"]":{"x_min":0,"x_max":312,"ha":312,"o":"m 205 -49 l 66 -49 l 66 -19 l 135 -19 l 135 723 l 66 723 l 66 753 l 205 753 z"},"U":{"x_min":0,"x_max":677,"ha":677,"o":"m 667 664 q 576 650 576 359 q 576 253 575 243 q 569 174 542 134 q 485 49 339 49 q 185 49 126 136 q 97 178 97 240 l 97 586 q 97 630 82 647 q 66 663 23 664 l 23 688 l 262 688 l 262 664 q 218 663 203 647 q 188 630 188 586 l 188 244 q 188 150 259 105 q 299 80 360 80 q 485 80 523 167 q 542 211 542 299 q 542 442 535 501 q 516 658 452 664 l 452 688 l 667 688 z"},"o":{"x_min":0,"x_max":490,"ha":490,"o":"m 468 311 q 468 207 397 129 q 324 49 221 49 q 127 49 73 109 q 21 167 21 261 q 21 364 90 442 q 163 523 265 523 q 359 523 414 464 q 468 406 468 311 z m 401 257 q 401 315 375 370 q 349 427 302 459 q 263 485 223 485 q 155 485 119 434 q 86 389 86 319 q 86 236 137 168 q 191 93 271 93 q 333 93 369 146 q 401 192 401 257 z"},"N":{"x_min":0,"x_max":677,"ha":677,"o":"m 672 664 q 583 656 583 371 l 583 41 l 560 41 l 138 610 l 138 428 q 138 302 147 238 q 167 94 229 86 l 229 63 l 17 63 l 17 86 q 105 100 105 423 l 105 591 q 105 632 90 648 q 74 663 32 664 l 32 688 l 192 688 l 547 210 l 547 355 q 547 655 458 664 l 458 688 l 672 688 z"},"+":{"x_min":0,"x_max":462,"ha":462,"o":"m 408 221 l 251 221 l 251 63 l 210 63 l 210 221 l 51 221 l 51 261 l 210 261 l 210 421 l 251 421 l 251 261 l 408 261 z"},"G":{"x_min":0,"x_max":667,"ha":667,"o":"m 640 309 q 616 308 603 286 q 591 268 591 242 l 591 41 l 566 41 q 564 126 501 126 q 474 126 434 99 q 420 90 414 86 q 349 49 290 49 q 223 49 162 91 q 103 131 72 193 q 40 258 40 340 q 40 438 86 523 q 133 607 217 656 q 297 702 398 702 q 476 702 575 672 l 575 524 l 540 524 q 531 594 476 633 q 425 669 353 669 q 246 669 182 592 q 123 520 123 411 q 123 297 181 210 q 247 112 356 112 q 415 112 458 144 q 506 179 506 235 q 506 309 414 309 l 396 309 l 396 332 l 640 332 z"},"q":{"x_min":0,"x_max":521,"ha":521,"o":"m 513 -146 l 290 -146 l 290 -122 q 330 -122 347 -104 q 363 -86 363 -45 l 363 199 q 301 128 269 102 q 206 49 148 49 q 86 49 51 110 q 21 160 21 228 q 21 303 64 376 q 109 451 176 483 q 232 509 315 508 l 362 508 q 429 507 443 538 l 469 538 q 438 484 438 393 l 438 -45 q 438 -86 455 -104 q 472 -122 513 -122 z m 370 372 q 370 400 363 436 q 298 474 240 474 q 169 474 130 403 q 99 346 99 269 q 99 210 121 167 q 148 112 202 112 q 279 112 329 208 q 370 288 370 372 z"},"d":{"x_min":0,"x_max":521,"ha":521,"o":"m 512 98 l 387 49 l 364 49 l 364 207 q 304 130 279 106 q 219 49 164 49 q 96 49 56 113 q 21 168 21 239 q 21 338 92 428 q 168 524 265 524 q 307 524 364 498 l 364 629 q 364 671 333 671 q 316 671 291 661 l 291 688 l 459 752 l 459 732 q 438 724 438 699 l 438 153 q 438 112 473 112 q 489 112 512 123 z m 370 374 q 370 407 364 433 q 296 489 233 489 q 166 489 127 414 q 96 353 96 278 q 96 220 122 171 q 153 113 207 113 q 279 113 329 211 q 370 294 370 374 z"},"1":{"x_min":0,"x_max":552,"ha":552,"o":"m 428 63 l 170 63 l 170 86 l 194 86 q 259 86 259 148 l 259 583 q 259 625 222 625 q 205 625 141 603 l 141 627 l 378 710 l 378 690 q 338 679 338 634 l 338 157 q 338 86 404 86 l 428 86 z"},"5":{"x_min":0,"x_max":552,"ha":552,"o":"m 500 311 q 500 208 418 129 q 336 49 233 49 q 163 49 97 81 l 97 243 l 131 243 q 140 177 174 135 q 214 85 276 85 q 342 85 378 139 q 408 185 408 254 q 408 328 375 380 q 335 440 266 440 q 188 440 140 362 l 111 362 l 126 688 l 417 688 q 446 688 447 712 l 470 712 l 470 541 l 447 541 q 447 580 431 597 q 415 614 376 614 l 154 614 l 145 419 q 208 470 308 470 q 387 470 440 431 q 500 388 500 311 z"}}}
